<svg xmlns="http://www.w3.org/2000/svg" width="100%" height="100%"  fill="currentColor">
  <mask id="mask0_770_7585" style="mask-type:alpha" maskUnits="userSpaceOnUse" x="0" y="0" width="100%" height="100%">
    <rect width="100%" height="100%" fill="#D9D9D9"/>
  </mask>
  <g mask="url(#mask0_770_7585)">
    <path d="M7.49998 10.8333H12.5C12.7361 10.8333 12.934 10.7535 13.0937 10.5937C13.2535 10.434 13.3333 10.2361 13.3333 9.99999C13.3333 9.76388 13.2535 9.56596 13.0937 9.40624C12.934 9.24652 12.7361 9.16666 12.5 9.16666H7.49998C7.26387 9.16666 7.06595 9.24652 6.90623 9.40624C6.74651 9.56596 6.66665 9.76388 6.66665 9.99999C6.66665 10.2361 6.74651 10.434 6.90623 10.5937C7.06595 10.7535 7.26387 10.8333 7.49998 10.8333ZM7.49998 13.3333H12.5C12.7361 13.3333 12.934 13.2535 13.0937 13.0937C13.2535 12.934 13.3333 12.7361 13.3333 12.5C13.3333 12.2639 13.2535 12.066 13.0937 11.9062C12.934 11.7465 12.7361 11.6667 12.5 11.6667H7.49998C7.26387 11.6667 7.06595 11.7465 6.90623 11.9062C6.74651 12.066 6.66665 12.2639 6.66665 12.5C6.66665 12.7361 6.74651 12.934 6.90623 13.0937C7.06595 13.2535 7.26387 13.3333 7.49998 13.3333ZM7.49998 15.8333H9.99998C10.2361 15.8333 10.434 15.7535 10.5937 15.5937C10.7535 15.434 10.8333 15.2361 10.8333 15C10.8333 14.7639 10.7535 14.566 10.5937 14.4062C10.434 14.2465 10.2361 14.1667 9.99998 14.1667H7.49998C7.26387 14.1667 7.06595 14.2465 6.90623 14.4062C6.74651 14.566 6.66665 14.7639 6.66665 15C6.66665 15.2361 6.74651 15.434 6.90623 15.5937C7.06595 15.7535 7.26387 15.8333 7.49998 15.8333ZM4.99998 18.3333C4.54165 18.3333 4.14929 18.1701 3.8229 17.8437C3.49651 17.5174 3.33331 17.125 3.33331 16.6667V3.33332C3.33331 2.87499 3.49651 2.48263 3.8229 2.15624C4.14929 1.82985 4.54165 1.66666 4.99998 1.66666H10.9791C11.2014 1.66666 11.4132 1.70832 11.6146 1.79166C11.816 1.87499 11.993 1.99305 12.1458 2.14582L16.1875 6.18749C16.3403 6.34027 16.4583 6.51735 16.5416 6.71874C16.625 6.92013 16.6666 7.13193 16.6666 7.35416V16.6667C16.6666 17.125 16.5035 17.5174 16.1771 17.8437C15.8507 18.1701 15.4583 18.3333 15 18.3333H4.99998ZM15 7.49999H12.0833C11.7361 7.49999 11.441 7.37846 11.1979 7.13541C10.9548 6.89235 10.8333 6.59721 10.8333 6.24999V3.33332H4.99998V16.6667H15V7.49999Z" fill="currentFill"/>
  </g>
</svg>